<svg width="32" height="33" viewBox="0 0 32 33" fill="none" xmlns="http://www.w3.org/2000/svg">
<g id="Notifications">
<path id="Vector" d="M16.0005 26.2C17.1005 26.2 18.0005 25.3 18.0005 24.2H14.0005C14.0005 25.3 14.8905 26.2 16.0005 26.2ZM22.0005 20.2V15.2C22.0005 12.13 20.3605 9.55995 17.5005 8.87995V8.19995C17.5005 7.36995 16.8305 6.69995 16.0005 6.69995C15.1705 6.69995 14.5005 7.36995 14.5005 8.19995V8.87995C11.6305 9.55995 10.0005 12.12 10.0005 15.2V20.2L8.71054 21.49C8.08054 22.12 8.52054 23.2 9.41054 23.2H22.5805C23.4705 23.2 23.9205 22.12 23.2905 21.49L22.0005 20.2Z" fill="#333342"/>
<path id="Vector_2" d="M23 14.2C25.7614 14.2 28 11.9614 28 9.19995C28 6.43853 25.7614 4.19995 23 4.19995C20.2386 4.19995 18 6.43853 18 9.19995C18 11.9614 20.2386 14.2 23 14.2Z" fill="#40BE88"/>
</g>
</svg>
