<svg width="17" height="17" viewBox="0 0 17 17" fill="none" xmlns="http://www.w3.org/2000/svg">
<g id="Icon" clip-path="url(#clip0_301_826)">
<path id="Vector" d="M4.16542 5.53337H13.0543V10.8667H4.16542V5.53337ZM15.2765 8.20003C15.2765 8.93642 15.8735 9.53337 16.6099 9.53337V12.2C16.6099 12.9364 16.0129 13.5334 15.2765 13.5334H1.9432C1.20681 13.5334 0.609863 12.9364 0.609863 12.2V9.53337C1.34625 9.53337 1.9432 8.93642 1.9432 8.20003C1.9432 7.46364 1.34625 6.8667 0.609863 6.8667V4.20003C0.609863 3.46364 1.20681 2.8667 1.9432 2.8667H15.2765C16.0129 2.8667 16.6099 3.46364 16.6099 4.20003V6.8667C15.8735 6.8667 15.2765 7.46364 15.2765 8.20003ZM13.9432 5.31114C13.9432 4.94295 13.6447 4.64448 13.2765 4.64448H3.9432C3.575 4.64448 3.27653 4.94295 3.27653 5.31114V11.0889C3.27653 11.4571 3.575 11.7556 3.9432 11.7556H13.2765C13.6447 11.7556 13.9432 11.4571 13.9432 11.0889V5.31114Z" fill="#FF7474"/>
</g>
<defs>
<clipPath id="clip0_301_826">
<rect width="16" height="16" fill="white" transform="translate(0.609863 0.199951)"/>
</clipPath>
</defs>
</svg>
