<svg width="32" height="33" viewBox="0 0 32 33" fill="none" xmlns="http://www.w3.org/2000/svg">
<g id="Messages">
<path id="Vector" d="M24.659 13.6578C24.7961 13.5488 25 13.6508 25 13.823V21.0125C25 21.9441 24.2441 22.7 23.3125 22.7H8.6875C7.75586 22.7 7 21.9441 7 21.0125V13.8266C7 13.6508 7.20039 13.5523 7.34102 13.6613C8.12852 14.273 9.17266 15.05 12.7586 17.6551C13.5004 18.1965 14.752 19.3355 16 19.3285C17.2551 19.3391 18.5312 18.1754 19.2449 17.6551C22.8309 15.05 23.8715 14.2695 24.659 13.6578ZM16 18.2C16.8156 18.2141 17.9898 17.1734 18.5805 16.7445C23.2457 13.359 23.6008 13.0637 24.6766 12.2199C24.8805 12.0617 25 11.8156 25 11.5555V10.8875C25 9.95581 24.2441 9.19995 23.3125 9.19995H8.6875C7.75586 9.19995 7 9.95581 7 10.8875V11.5555C7 11.8156 7.11953 12.0582 7.32344 12.2199C8.39922 13.0602 8.7543 13.359 13.4195 16.7445C14.0102 17.1734 15.1844 18.2141 16 18.2Z" fill="#333342"/>
</g>
</svg>
